# xmcd
#
# Track frame offsets:
#	150
#	12960
#	24069
#	37613
#	53837
#	66539
#	79380
#	92427
#	103391
#	115927
#	131845
#	146584
#	156473
#	167870
#	182354
#	195152
#	206534
#	216104
#	230370
#	240702
#	253857
#	263403
#	276630
#	290664
#
# Disc length: 4074 seconds
#
# Revision: 0
# Processed by: cddbd v1.5.2PL0 Copyright (c) Steve Scherf et al.
# Submitted via: audiograbber 1.83.01
#
DISCID=5a0fe818
DTITLE=Chitãozinho and Xororó - 2 em 1
DYEAR=1900
DGENRE=
TTITLE0=Aquelas Águas Serenas
TTITLE1=A Flor da Noite
TTITLE2=A Saudade Continua
TTITLE3=Adeus Amor
TTITLE4=Amor da Minha Vida
TTITLE5=Caboclo de Fato
TTITLE6=Caminhando Pela Vida
TTITLE7=Coceira de Canela
TTITLE8=Doce Amada
TTITLE9=João Ninguém
TTITLE10=Manhã de Sol
TTITLE11=Mendigo Por Tua Culpa
TTITLE12=Minha Infância
TTITLE13=O Comício Terminou
TTITLE14=O Homem do Campo
TTITLE15=O Pobre e a Rosa
TTITLE16=O Tempo Trouxe a Saudade
TTITLE17=Para Sempre Comigo
TTITLE18=Professora do Desprezo
TTITLE19=Querida
TTITLE20=Rosa Branca
TTITLE21=Sonhos Perdidos
TTITLE22=Sozinho na Estrada
TTITLE23=Uma Casa de Caboclo
EXTD=
EXTT0=
EXTT1=
EXTT2=
EXTT3=
EXTT4=
EXTT5=
EXTT6=
EXTT7=
EXTT8=
EXTT9=
EXTT10=
EXTT11=
EXTT12=
EXTT13=
EXTT14=
EXTT15=
EXTT16=
EXTT17=
EXTT18=
EXTT19=
EXTT20=
EXTT21=
EXTT22=
EXTT23=
PLAYORDER=
